<?xml version="1.0" encoding="UTF-8"?>
<svg width="48px" height="48px" viewBox="0 0 48 48" version="1.1" xmlns="http://www.w3.org/2000/svg" xmlns:xlink="http://www.w3.org/1999/xlink">
    <title>logo</title>
    <g id="页面-1" stroke="none" stroke-width="1" fill="none" fill-rule="evenodd">
        <g id="编组-2" transform="translate(-216.000000, -100.000000)" fill="#FFFFFF" fill-rule="nonzero">
            <g id="logo" transform="translate(216.000000, 100.000000)">
                <path d="M24.111544,27.9571675 L20.0857413,27.9571675 C20.6286086,25.7857101 20.9000422,23.8858005 20.9000422,21.7143431 C20.9000422,19.5428856 20.6286086,17.3715439 20.0857413,15.4715186 L32.3000231,15.4715186 C36.0999782,15.4715186 39.0857413,18.1858404 39.0857413,21.7143431 C39.0857413,21.8403404 39.0813515,21.966222 39.0748723,22.090021 C38.0108916,21.8399094 36.9215273,21.7138438 35.8285446,21.7143431 C31.126279,21.7114944 26.7320029,24.0527671 24.111544,27.9571675 L24.111544,27.9571675 Z M23.9313981,43.4263722 L23.6143785,43.4285705 C19.5429898,43.4285705 16.2857862,42.3428417 13.0286984,40.9856808 C15.7430347,38.271359 17.6429544,34.7428564 19.0001225,31.214238 L22.5070079,31.1534955 C21.9806898,32.6559156 21.7127149,34.2366457 21.7144588,35.8285851 C21.7096825,38.522058 22.4792582,41.1601359 23.9315138,43.4285705 L23.9315138,43.4263722 L23.9313981,43.4263722 Z M0,21.4429109 C0,19.2714535 0.271433627,17.3715439 0.814300882,15.4715186 L17.1000871,15.4715186 C17.6429544,17.3715439 17.914388,19.5428856 17.914388,21.7143431 C17.914388,23.8858005 17.6429544,25.7857101 17.1000871,27.9571675 L1.08573451,27.9571675 C0.271433627,26.0571423 0,23.6142526 0,21.4429109 Z M2.44290265,12.4857646 C4.07150441,8.95726197 7.05715861,5.97150798 10.5857958,3.80005053 C12.7572648,6.24294016 14.6571845,9.22857845 16.2857862,12.4857646 L2.44290265,12.4857646 Z M34.7429258,12.4857646 L19.0000068,12.2143324 C17.6428387,8.68582979 15.7428033,5.15721144 13.0285827,2.44288963 C16.2857862,0.814296543 19.5428741,0 23.6142628,0 C31.7571559,0 39.0857481,3.52850265 43.4285705,8.95714627 C41.2572171,11.1286037 38.2714472,12.4857646 34.7429258,12.4857646 L34.7429258,12.4857646 Z M2.17146902,30.9428058 L16.0143526,30.9428058 C14.6571845,34.199992 12.7571491,37.1856303 10.3143621,39.3570877 C6.89198063,37.3366333 4.07866786,34.4295576 2.17146902,30.9428058 L2.17146902,30.9428058 Z" id="形状"></path>
                <path d="M36.1930501,47.9999979 C29.6721819,48.0027426 24.3836992,42.7177347 24.3809529,36.1955083 C24.3782087,29.6732819 29.662116,24.3836977 36.1829842,24.3809518 L36.1929357,24.3809518 C42.7138039,24.3809518 47.9999989,29.6682479 47.9999989,36.1904743 C47.9999989,42.7127008 42.7139183,47.9999979 36.1930501,47.9999979 L36.1930501,47.9999979 Z M36.1930501,45.8527693 C41.5283163,45.8527693 45.8534473,41.5267374 45.8534473,36.1903599 C45.8534473,30.8539824 41.5283163,26.5279505 36.1930501,26.5279505 C30.8577839,26.5279505 26.5326529,30.8539824 26.5326529,36.1903599 C26.5326529,41.5267374 30.8577839,45.8527693 36.1930501,45.8527693 Z" id="形状"></path>
                <path d="M40.2288398,34.7127815 L40.2288398,32.8014427 L42.6666657,32.8014427 L42.6666657,34.9159553 C42.6222069,38.3548601 39.6805142,41.0676067 36.2312498,41.1428562 C32.7264118,41.1202814 29.7624897,38.3887224 29.7142851,34.9121928 L29.7142851,31.1120901 C29.7106211,30.7245549 29.9588495,30.4724689 30.3330447,30.4761898 L40.2288398,30.4761898 L40.2288398,32.7976802 L32.4707736,32.8014427 C32.2707088,32.8014427 32.1521519,32.9256045 32.1521519,33.1250158 L32.1521519,34.6751567 C32.1780862,36.928881 33.9675542,38.7762576 36.2312498,38.7988325 C38.4467816,38.7273454 40.2029054,36.9364059 40.2288398,34.7127815 Z" id="XMLID_38_备份-2" transform="translate(36.190475, 35.809523) rotate(-90.000000) translate(-36.190475, -35.809523) "></path>
            </g>
        </g>
    </g>
</svg>